<svg width="0" height="0" fill="none" style="visibility: hidden; position: absolute;" aria-hidden="true">
    <symbol id="arrow-down" viewBox="0 0 24 24" fill="none" xmlns="http://www.w3.org/2000/svg">
        <g clip-path="url(#clip0_109_35__arrow-down)">
            <path d="M7.5 4.5H6.75C5.50736 4.5 4.5 5.50736 4.5 6.75V14.25C4.5 15.4926 5.50736 16.5 6.75 16.5H14.25C15.4926 16.5 16.5 15.4926 16.5 14.25V6.75C16.5 5.50736 15.4926 4.5 14.25 4.5H13.5M7.5 8.25L10.5 11.25M10.5 11.25L13.5 8.25M10.5 11.25L10.5 -1.5M16.5 7.5H17.25C18.4926 7.5 19.5 8.50736 19.5 9.75V17.25C19.5 18.4926 18.4926 19.5 17.25 19.5H9.75C8.50736 19.5 7.5 18.4926 7.5 17.25V16.5" stroke="currentColor" stroke-width="2" stroke-linecap="round" stroke-linejoin="round"/>
        </g>
        <defs>
            <clipPath id="clip0_109_35__arrow-down">
                <rect fill="white"/>
            </clipPath>
        </defs>
    </symbol>
    <symbol id="briefcase-advance" viewBox="0 0 24 24" fill="none" xmlns="http://www.w3.org/2000/svg">
        <path d="M20.25 14.1499V18.4C20.25 19.4944 19.4631 20.4359 18.3782 20.58C16.2915 20.857 14.1624 21 12 21C9.83757 21 7.70854 20.857 5.62185 20.58C4.5369 20.4359 3.75 19.4944 3.75 18.4V14.1499M20.25 14.1499C20.7219 13.7476 21 13.1389 21 12.4889V8.70569C21 7.62475 20.2321 6.69082 19.1631 6.53086C18.0377 6.36247 16.8995 6.23315 15.75 6.14432M20.25 14.1499C20.0564 14.315 19.8302 14.4453 19.5771 14.5294C17.1953 15.3212 14.6477 17.5 12 17.5C9.35227 17.5 6.80469 15.3212 4.42289 14.5294C4.16984 14.4452 3.94361 14.3149 3.75 14.1499M3.75 14.1499C3.27808 13.7476 3 13.1389 3 12.4889V8.70569C3 7.62475 3.7679 6.69082 4.83694 6.53086C5.96233 6.36247 7.10049 6.23315 8.25 6.14432M15.75 6.14432V5.25C15.75 4.00736 14.7426 3 13.5 3H10.5C9.25736 3 8.25 4.00736 8.25 5.25V6.14432M15.75 6.14432C14.5126 6.0487 13.262 6 12 6C10.738 6 9.48744 6.0487 8.25 6.14432" stroke="currentColor" stroke-width="2" stroke-linecap="round" stroke-linejoin="round"/>
    </symbol>
    <symbol id="briefcase" viewBox="0 0 24 24" fill="none" xmlns="http://www.w3.org/2000/svg">
        <path d="M20.25 14.1499V18.4C20.25 19.4944 19.4631 20.4359 18.3782 20.58C16.2915 20.857 14.1624 21 12 21C9.83757 21 7.70854 20.857 5.62185 20.58C4.5369 20.4359 3.75 19.4944 3.75 18.4V14.1499M20.25 14.1499C20.7219 13.7476 21 13.1389 21 12.4889V8.70569C21 7.62475 20.2321 6.69082 19.1631 6.53086C18.0377 6.36247 16.8995 6.23315 15.75 6.14432M20.25 14.1499C20.0564 14.315 19.8302 14.4453 19.5771 14.5294C17.1953 15.3212 14.6477 15.75 12 15.75C9.35229 15.75 6.80469 15.3212 4.42289 14.5294C4.16984 14.4452 3.94361 14.3149 3.75 14.1499M3.75 14.1499C3.27808 13.7476 3 13.1389 3 12.4889V8.70569C3 7.62475 3.7679 6.69082 4.83694 6.53086C5.96233 6.36247 7.10049 6.23315 8.25 6.14432M15.75 6.14432V5.25C15.75 4.00736 14.7426 3 13.5 3H10.5C9.25736 3 8.25 4.00736 8.25 5.25V6.14432M15.75 6.14432C14.5126 6.0487 13.262 6 12 6C10.738 6 9.48744 6.0487 8.25 6.14432M12 12.75H12.0075V12.7575H12V12.75Z" stroke="currentColor" stroke-width="2" stroke-linecap="round" stroke-linejoin="round"/>
    </symbol>
    <symbol id="chart" viewBox="0 0 24 24" fill="none" xmlns="http://www.w3.org/2000/svg">
        <g clip-path="url(#clip0_109_28__chart)">
            <path d="M10.5 6C6.35786 6 3 9.35786 3 13.5C3 17.6421 6.35786 21 10.5 21C14.6421 21 18 17.6421 18 13.5H10.5V6Z" stroke="currentColor" stroke-width="2" stroke-linecap="round" stroke-linejoin="round"/>
            <path d="M13.5 10.5H21C21 6.35786 17.6421 3 13.5 3V10.5Z" stroke="currentColor" stroke-width="2" stroke-linecap="round" stroke-linejoin="round"/>
        </g>
        <defs>
            <clipPath id="clip0_109_28__chart">
                <rect fill="white"/>
            </clipPath>
        </defs>
    </symbol>
    <symbol id="chat-bubble" viewBox="0 0 24 24" fill="none" xmlns="http://www.w3.org/2000/svg">
        <g clip-path="url(#clip0_109_36__chat-bubble)">
            <path d="M20.25 8.51104C21.1341 8.79549 21.75 9.6392 21.75 10.6082V14.8938C21.75 16.0304 20.9026 16.9943 19.7697 17.0867C19.4308 17.1144 19.0909 17.1386 18.75 17.1592V20.25L15.75 17.25C14.3963 17.25 13.0556 17.1948 11.7302 17.0866C11.4319 17.0623 11.1534 16.9775 10.9049 16.8451M20.25 8.51104C20.0986 8.46232 19.9393 8.43 19.7739 8.41628C18.4472 8.30616 17.1051 8.25 15.75 8.25C14.3948 8.25 13.0528 8.30616 11.7261 8.41627C10.595 8.51015 9.75 9.47323 9.75 10.6082V14.8937C9.75 15.731 10.2099 16.4746 10.9049 16.8451M20.25 8.51104V6.63731C20.25 5.01589 19.0983 3.61065 17.4903 3.40191C15.4478 3.13676 13.365 3 11.2503 3C9.13533 3 7.05233 3.13678 5.00963 3.40199C3.40173 3.61074 2.25 5.01598 2.25 6.63738V12.8626C2.25 14.484 3.40173 15.8893 5.00964 16.098C5.58661 16.1729 6.16679 16.2376 6.75 16.2918V21L10.9049 16.8451" stroke="currentColor" stroke-width="2" stroke-linecap="round" stroke-linejoin="round"/>
        </g>
        <defs>
            <clipPath id="clip0_109_36__chat-bubble">
                <rect fill="white"/>
            </clipPath>
        </defs>
    </symbol>
    <symbol id="document-text" viewBox="0 0 24 24" fill="none" xmlns="http://www.w3.org/2000/svg">
        <g clip-path="url(#clip0_109_34__document-text)">
            <path d="M19.5 14.25V11.625C19.5 9.76104 17.989 8.25 16.125 8.25H14.625C14.0037 8.25 13.5 7.74632 13.5 7.125V5.625C13.5 3.76104 11.989 2.25 10.125 2.25H8.25M8.25 15H15.75M8.25 18H12M10.5 2.25H5.625C5.00368 2.25 4.5 2.75368 4.5 3.375V20.625C4.5 21.2463 5.00368 21.75 5.625 21.75H18.375C18.9963 21.75 19.5 21.2463 19.5 20.625V11.25C19.5 6.27944 15.4706 2.25 10.5 2.25Z" stroke="currentColor" stroke-width="2" stroke-linecap="round" stroke-linejoin="round"/>
        </g>
        <defs>
            <clipPath id="clip0_109_34__document-text">
                <rect fill="white"/>
            </clipPath>
        </defs>
    </symbol>
    <symbol id="document" viewBox="0 0 24 24" fill="none" xmlns="http://www.w3.org/2000/svg">
        <g clip-path="url(#clip0_109_33__document)">
            <path d="M15.75 17.25V20.625C15.75 21.2463 15.2463 21.75 14.625 21.75H4.875C4.25368 21.75 3.75 21.2463 3.75 20.625V7.875C3.75 7.25368 4.25368 6.75 4.875 6.75H6.75C7.26107 6.75 7.76219 6.7926 8.25 6.87444M15.75 17.25H19.125C19.7463 17.25 20.25 16.7463 20.25 16.125V11.25C20.25 6.79051 17.0066 3.08855 12.75 2.37444C12.2622 2.2926 11.7611 2.25 11.25 2.25H9.375C8.75368 2.25 8.25 2.75368 8.25 3.375V6.87444M15.75 17.25H9.375C8.75368 17.25 8.25 16.7463 8.25 16.125V6.87444M20.25 13.5V11.625C20.25 9.76104 18.739 8.25 16.875 8.25H15.375C14.7537 8.25 14.25 7.74632 14.25 7.125V5.625C14.25 3.76104 12.739 2.25 10.875 2.25H9.75" stroke="currentColor" stroke-width="2" stroke-linecap="round" stroke-linejoin="round"/>
        </g>
        <defs>
            <clipPath id="clip0_109_33__document">
                <rect fill="white"/>
            </clipPath>
        </defs>
    </symbol>
    <symbol id="exclamation-circle" viewBox="0 0 24 24" fill="none" xmlns="http://www.w3.org/2000/svg">
        <g clip-path="url(#clip0_109_32__exclamation-circle)">
            <path d="M12 9V12.75M21 12C21 16.9706 16.9706 21 12 21C7.02944 21 3 16.9706 3 12C3 7.02944 7.02944 3 12 3C16.9706 3 21 7.02944 21 12ZM12 15.75H12.0075V15.7575H12V15.75Z" stroke="currentColor" stroke-width="2" stroke-linecap="round" stroke-linejoin="round"/>
        </g>
        <defs>
            <clipPath id="clip0_109_32__exclamation-circle">
                <rect fill="white"/>
            </clipPath>
        </defs>
    </symbol>
    <symbol id="gift" viewBox="0 0 24 24" fill="none" xmlns="http://www.w3.org/2000/svg">
        <g clip-path="url(#clip0_115_44__gift)">
            <path d="M21 11.25V19.5C21 20.3284 20.3284 21 19.5 21H5.25C4.42157 21 3.75 20.3284 3.75 19.5V11.25M12 4.875C12 3.42525 10.8247 2.25 9.375 2.25C7.92525 2.25 6.75 3.42525 6.75 4.875C6.75 6.32475 7.92525 7.5 9.375 7.5C10.1095 7.5 12 7.5 12 7.5M12 4.875C12 5.59024 12 7.5 12 7.5M12 4.875C12 3.42525 13.1753 2.25 14.625 2.25C16.0747 2.25 17.25 3.42525 17.25 4.875C17.25 6.32475 16.0747 7.5 14.625 7.5C13.8905 7.5 12 7.5 12 7.5M12 7.5V21M3.375 11.25H21.375C21.9963 11.25 22.5 10.7463 22.5 10.125V8.625C22.5 8.00368 21.9963 7.5 21.375 7.5H3.375C2.75368 7.5 2.25 8.00368 2.25 8.625V10.125C2.25 10.7463 2.75368 11.25 3.375 11.25Z" stroke="currentColor" stroke-width="2" stroke-linecap="round" stroke-linejoin="round"/>
        </g>
        <defs>
            <clipPath id="clip0_115_44__gift">
                <rect fill="white"/>
            </clipPath>
        </defs>
    </symbol>
    <symbol id="home" viewBox="0 0 24 24" fill="none" xmlns="http://www.w3.org/2000/svg">
        <path d="M2 12.284L10.9545 3.32951C11.3938 2.89017 12.1062 2.89016 12.5455 3.3295L21.5 12.284M4.25 10.034V20.159C4.25 20.7803 4.75368 21.284 5.375 21.284H9.5V16.409C9.5 15.7877 10.0037 15.284 10.625 15.284H12.875C13.4963 15.284 14 15.7877 14 16.409V21.284H18.125C18.7463 21.284 19.25 20.7803 19.25 20.159V10.034M8 21.284H16.25" stroke="currentColor" stroke-width="2" stroke-linecap="round" stroke-linejoin="round"/>
    </symbol>
    <symbol id="location" viewBox="0 0 24 24" fill="none" xmlns="http://www.w3.org/2000/svg">
        <g clip-path="url(#clip0_109_27__location)">
            <path d="M15 10.5C15 12.1569 13.6569 13.5 12 13.5C10.3431 13.5 9 12.1569 9 10.5C9 8.84315 10.3431 7.5 12 7.5C13.6569 7.5 15 8.84315 15 10.5Z" stroke="currentColor" stroke-width="2" stroke-linecap="round" stroke-linejoin="round"/>
            <path d="M19.5 10.5C19.5 17.6421 12 21.75 12 21.75C12 21.75 4.5 17.6421 4.5 10.5C4.5 6.35786 7.85786 3 12 3C16.1421 3 19.5 6.35786 19.5 10.5Z" stroke="currentColor" stroke-width="2" stroke-linecap="round" stroke-linejoin="round"/>
        </g>
        <defs>
            <clipPath id="clip0_109_27__location">
                <rect fill="white"/>
            </clipPath>
        </defs>
    </symbol>
    <symbol id="newspaper" viewBox="0 0 24 24" fill="none" xmlns="http://www.w3.org/2000/svg">
        <path d="M12 7.5H13.5M12 10.5H13.5M6 13.5H13.5M6 16.5H13.5M16.5 7.5H19.875C20.4963 7.5 21 8.00368 21 8.625V18C21 19.2426 19.9926 20.25 18.75 20.25M16.5 7.5V18C16.5 19.2426 17.5074 20.25 18.75 20.25M16.5 7.5V4.875C16.5 4.25368 15.9963 3.75 15.375 3.75H4.125C3.50368 3.75 3 4.25368 3 4.875V18C3 19.2426 4.00736 20.25 5.25 20.25H18.75M6 7.5H9V10.5H6V7.5Z" stroke="currentColor" stroke-width="2" stroke-linecap="round" stroke-linejoin="round"/>
    </symbol>
    <symbol id="queue-list" viewBox="0 0 24 24" fill="none" xmlns="http://www.w3.org/2000/svg">
        <g clip-path="url(#clip0_109_40__queue-list)">
            <path d="M3.75 12H20.25M3.75 15.75H20.25M3.75 19.5H20.25M5.625 4.5H18.375C19.4105 4.5 20.25 5.33947 20.25 6.375C20.25 7.41053 19.4105 8.25 18.375 8.25H5.625C4.58947 8.25 3.75 7.41053 3.75 6.375C3.75 5.33947 4.58947 4.5 5.625 4.5Z" stroke="currentColor" stroke-width="2" stroke-linecap="round" stroke-linejoin="round"/>
        </g>
        <defs>
            <clipPath id="clip0_109_40__queue-list">
                <rect fill="white"/>
            </clipPath>
        </defs>
    </symbol>
    <symbol id="rectangle" viewBox="0 0 24 24" fill="none" xmlns="http://www.w3.org/2000/svg">
        <g clip-path="url(#clip0_109_26__rectangle)">
            <path d="M2.25 7.125C2.25 6.50368 2.75368 6 3.375 6H9.375C9.99632 6 10.5 6.50368 10.5 7.125V10.875C10.5 11.4963 9.99632 12 9.375 12H3.375C2.75368 12 2.25 11.4963 2.25 10.875V7.125Z" stroke="currentColor" stroke-width="2" stroke-linecap="round" stroke-linejoin="round"/>
            <path d="M14.25 8.625C14.25 8.00368 14.7537 7.5 15.375 7.5H20.625C21.2463 7.5 21.75 8.00368 21.75 8.625V16.875C21.75 17.4963 21.2463 18 20.625 18H15.375C14.7537 18 14.25 17.4963 14.25 16.875V8.625Z" stroke="currentColor" stroke-width="2" stroke-linecap="round" stroke-linejoin="round"/>
            <path d="M3.75 16.125C3.75 15.5037 4.25368 15 4.875 15H10.125C10.7463 15 11.25 15.5037 11.25 16.125V18.375C11.25 18.9963 10.7463 19.5 10.125 19.5H4.875C4.25368 19.5 3.75 18.9963 3.75 18.375V16.125Z" stroke="currentColor" stroke-width="2" stroke-linecap="round" stroke-linejoin="round"/>
        </g>
        <defs>
            <clipPath id="clip0_109_26__rectangle">
                <rect fill="white"/>
            </clipPath>
        </defs>
    </symbol>
    <symbol id="squares" viewBox="0 0 24 24" fill="none" xmlns="http://www.w3.org/2000/svg">
        <g clip-path="url(#clip0_109_22__squares)">
            <path d="M3.75 6C3.75 4.75736 4.75736 3.75 6 3.75H8.25C9.49264 3.75 10.5 4.75736 10.5 6V8.25C10.5 9.49264 9.49264 10.5 8.25 10.5H6C4.75736 10.5 3.75 9.49264 3.75 8.25V6Z" stroke="currentColor" stroke-width="2" stroke-linecap="round" stroke-linejoin="round"/>
            <path d="M3.75 15.75C3.75 14.5074 4.75736 13.5 6 13.5H8.25C9.49264 13.5 10.5 14.5074 10.5 15.75V18C10.5 19.2426 9.49264 20.25 8.25 20.25H6C4.75736 20.25 3.75 19.2426 3.75 18V15.75Z" stroke="currentColor" stroke-width="2" stroke-linecap="round" stroke-linejoin="round"/>
            <path d="M13.5 6C13.5 4.75736 14.5074 3.75 15.75 3.75H18C19.2426 3.75 20.25 4.75736 20.25 6V8.25C20.25 9.49264 19.2426 10.5 18 10.5H15.75C14.5074 10.5 13.5 9.49264 13.5 8.25V6Z" stroke="currentColor" stroke-width="2" stroke-linecap="round" stroke-linejoin="round"/>
            <path d="M13.5 15.75C13.5 14.5074 14.5074 13.5 15.75 13.5H18C19.2426 13.5 20.25 14.5074 20.25 15.75V18C20.25 19.2426 19.2426 20.25 18 20.25H15.75C14.5074 20.25 13.5 19.2426 13.5 18V15.75Z" stroke="currentColor" stroke-width="2" stroke-linecap="round" stroke-linejoin="round"/>
        </g>
        <defs>
            <clipPath id="clip0_109_22__squares">
                <rect fill="white"/>
            </clipPath>
        </defs>
    </symbol>
    <symbol id="stack" viewBox="0 0 24 24" fill="none" xmlns="http://www.w3.org/2000/svg">
        <g clip-path="url(#clip0_109_21__stack)">
            <path d="M6.42857 9.75L2.25 12L6.42857 14.25M6.42857 9.75L12 12.75L17.5714 9.75M6.42857 9.75L2.25 7.5L12 2.25L21.75 7.5L17.5714 9.75M17.5714 9.75L21.75 12L17.5714 14.25M17.5714 14.25L21.75 16.5L12 21.75L2.25 16.5L6.42857 14.25M17.5714 14.25L12 17.25L6.42857 14.25" stroke="currentColor" stroke-width="2" stroke-linecap="round" stroke-linejoin="round"/>
        </g>
        <defs>
            <clipPath id="clip0_109_21__stack">
                <rect fill="white"/>
            </clipPath>
        </defs>
    </symbol>
    <symbol id="table" viewBox="0 0 24 24" fill="none" xmlns="http://www.w3.org/2000/svg">
        <g clip-path="url(#clip0_109_29__table)">
            <path d="M3.375 19.5H20.625M3.375 19.5C2.75368 19.5 2.25 18.9963 2.25 18.375M3.375 19.5H10.875C11.4963 19.5 12 18.9963 12 18.375M2.25 18.375V5.625M2.25 18.375V16.875C2.25 16.2537 2.75368 15.75 3.375 15.75M21.75 18.375V5.625M21.75 18.375C21.75 18.9963 21.2463 19.5 20.625 19.5M21.75 18.375V16.875C21.75 16.2537 21.2463 15.75 20.625 15.75M20.625 19.5H13.125C12.5037 19.5 12 18.9963 12 18.375M21.75 5.625C21.75 5.00368 21.2463 4.5 20.625 4.5H3.375C2.75368 4.5 2.25 5.00368 2.25 5.625M21.75 5.625V7.125C21.75 7.74632 21.2463 8.25 20.625 8.25M2.25 5.625V7.125C2.25 7.74632 2.75368 8.25 3.375 8.25M3.375 8.25H20.625M3.375 8.25H10.875C11.4963 8.25 12 8.75368 12 9.375M3.375 8.25C2.75368 8.25 2.25 8.75368 2.25 9.375V10.875C2.25 11.4963 2.75368 12 3.375 12M20.625 8.25H13.125C12.5037 8.25 12 8.75368 12 9.375M20.625 8.25C21.2463 8.25 21.75 8.75368 21.75 9.375V10.875C21.75 11.4963 21.2463 12 20.625 12M3.375 12H10.875M3.375 12C2.75368 12 2.25 12.5037 2.25 13.125V14.625C2.25 15.2463 2.75368 15.75 3.375 15.75M12 10.875V9.375M12 10.875C12 11.4963 11.4963 12 10.875 12M12 10.875C12 11.4963 12.5037 12 13.125 12M10.875 12C11.4963 12 12 12.5037 12 13.125M13.125 12H20.625M13.125 12C12.5037 12 12 12.5037 12 13.125M20.625 12C21.2463 12 21.75 12.5037 21.75 13.125V14.625C21.75 15.2463 21.2463 15.75 20.625 15.75M3.375 15.75H10.875M12 14.625V13.125M12 14.625C12 15.2463 11.4963 15.75 10.875 15.75M12 14.625C12 15.2463 12.5037 15.75 13.125 15.75M10.875 15.75C11.4963 15.75 12 16.2537 12 16.875M12 18.375V16.875M12 16.875C12 16.2537 12.5037 15.75 13.125 15.75M13.125 15.75H20.625" stroke="currentColor" stroke-width="2" stroke-linecap="round" stroke-linejoin="round"/>
        </g>
        <defs>
            <clipPath id="clip0_109_29__table">
                <rect fill="white"/>
            </clipPath>
        </defs>
    </symbol>
    <symbol id="wallet" viewBox="0 0 24 24" fill="none" xmlns="http://www.w3.org/2000/svg">
        <g clip-path="url(#clip0_109_30__wallet)">
            <path d="M21 12C21 10.7574 19.9926 9.75 18.75 9.75H15C15 11.4069 13.6569 12.75 12 12.75C10.3431 12.75 9 11.4069 9 9.75H5.25C4.00736 9.75 3 10.7574 3 12M21 12V18C21 19.2426 19.9926 20.25 18.75 20.25H5.25C4.00736 20.25 3 19.2426 3 18V12M21 12V9M3 12V9M21 9C21 7.75736 19.9926 6.75 18.75 6.75H5.25C4.00736 6.75 3 7.75736 3 9M21 9V6C21 4.75736 19.9926 3.75 18.75 3.75H5.25C4.00736 3.75 3 4.75736 3 6V9" stroke="currentColor" stroke-width="2" stroke-linecap="round" stroke-linejoin="round"/>
        </g>
        <defs>
            <clipPath id="clip0_109_30__wallet">
                <rect fill="white"/>
            </clipPath>
        </defs>
    </symbol>
    <symbol id="window" viewBox="0 0 24 24" fill="none" xmlns="http://www.w3.org/2000/svg">
        <g clip-path="url(#clip0_115_66__window)">
            <path d="M3 8.25V18C3 19.2426 4.00736 20.25 5.25 20.25H18.75C19.9926 20.25 21 19.2426 21 18V8.25M3 8.25V6C3 4.75736 4.00736 3.75 5.25 3.75H18.75C19.9926 3.75 21 4.75736 21 6V8.25M3 8.25H21M5.25 6H5.2575V6.0075H5.25V6ZM7.5 6H7.5075V6.0075H7.5V6ZM9.75 6H9.7575V6.0075H9.75V6Z" stroke="currentColor" stroke-width="2" stroke-linecap="round" stroke-linejoin="round"/>
        </g>
        <defs>
            <clipPath id="clip0_115_66__window">
                <rect fill="white"/>
            </clipPath>
        </defs>
    </symbol>
</svg>